<?xml version="1.0" standalone="no"?>
<!DOCTYPE svg PUBLIC "-//W3C//DTD SVG 20010904//EN"
 "http://www.w3.org/TR/2001/REC-SVG-20010904/DTD/svg10.dtd">
<svg version="1.0" xmlns="http://www.w3.org/2000/svg"
 width="649.000000pt" height="384.000000pt" viewBox="0 0 649.000000 384.000000"
 preserveAspectRatio="xMidYMid meet">

<g transform="translate(0.000000,384.000000) scale(0.100000,-0.100000)"
fill="#000000" stroke="none">
<path d="M355 3170 c-3 -5 1 -10 9 -10 8 0 18 5 21 10 3 6 -1 10 -9 10 -8 0
-18 -4 -21 -10z"/>
<path d="M405 3120 c-3 -5 -1 -10 4 -10 6 0 11 5 11 10 0 6 -2 10 -4 10 -3 0
-8 -4 -11 -10z"/>
<path d="M2132 3060 c-46 -19 -59 -119 -18 -145 32 -21 86 -36 86 -24 0 5 7 9
15 9 18 0 39 36 25 45 -5 3 -10 14 -10 24 0 10 -7 25 -17 32 -15 13 -15 12 -4
-9 22 -42 -8 -106 -40 -86 -16 10 -10 24 9 17 14 -5 15 -4 4 8 -7 8 -18 14
-25 14 -7 0 -11 8 -9 17 2 12 -3 15 -17 11 -26 -7 -36 14 -11 22 13 4 20 15
20 30 0 19 7 26 28 31 45 10 49 12 17 13 -16 0 -40 -4 -53 -9z m-2 -110 c0 -5
-2 -10 -4 -10 -3 0 -8 5 -11 10 -3 6 -1 10 4 10 6 0 11 -4 11 -10z"/>
<path d="M2230 3032 c0 -12 4 -22 9 -22 5 0 12 -10 14 -22 2 -13 3 -8 1 11 -4
40 -24 68 -24 33z"/>
<path d="M4879 3011 c-32 -32 -39 -46 -39 -78 0 -95 144 -147 208 -75 13 15
21 36 20 52 -2 22 -6 25 -30 22 -19 -3 -28 -10 -28 -23 0 -11 -4 -20 -10 -20
-20 -3 -25 -4 -36 -12 -15 -9 -32 12 -37 44 -3 16 -10 23 -21 21 -9 -2 -16 2
-16 8 0 19 47 10 63 -12 14 -22 14 -21 13 20 0 23 -4 42 -8 42 -5 0 -8 4 -8
10 0 6 9 6 25 0 14 -5 25 -6 25 -1 0 12 -25 21 -56 21 -14 0 -22 4 -19 10 14
22 -10 8 -46 -29z m47 -20 c12 9 13 9 9 -3 -4 -9 -17 -15 -31 -15 -20 0 -22 2
-12 14 8 10 13 12 16 4 3 -9 8 -9 18 0z m134 -80 c0 -11 -31 -24 -39 -16 -3 3
1 10 9 15 19 12 30 12 30 1z m-130 -41 c0 -5 -4 -10 -9 -10 -6 0 -13 5 -16 10
-3 6 1 10 9 10 9 0 16 -4 16 -10z m65 -20 c3 -5 1 -10 -4 -10 -6 0 -11 5 -11
10 0 6 2 10 4 10 3 0 8 -4 11 -10z"/>
<path d="M4968 3043 c7 -3 16 -2 19 1 4 3 -2 6 -13 5 -11 0 -14 -3 -6 -6z"/>
<path d="M2185 3030 c3 -5 8 -10 11 -10 2 0 4 5 4 10 0 6 -5 10 -11 10 -5 0
-7 -4 -4 -10z"/>
<path d="M750 3019 c0 -8 -7 -26 -14 -41 -8 -15 -11 -30 -7 -32 4 -3 6 -19 3
-37 -3 -20 -1 -29 5 -26 6 4 10 21 10 39 0 18 3 48 7 66 4 18 5 36 2 39 -3 4
-6 0 -6 -8z"/>
<path d="M5025 3005 c-5 -11 -10 -23 -11 -26 -2 -3 8 -4 22 -1 14 2 22 7 16
11 -5 3 -11 13 -14 21 -5 12 -7 11 -13 -5z"/>
<path d="M4975 2970 c-3 -5 1 -10 9 -10 9 0 16 5 16 10 0 6 -4 10 -9 10 -6 0
-13 -4 -16 -10z"/>
<path d="M780 2956 c0 -8 -5 -16 -12 -18 -9 -3 -9 -6 0 -12 7 -4 12 -2 12 3 0
8 7 7 20 -1 25 -16 35 -6 20 21 -12 24 -40 28 -40 7z"/>
<path d="M5015 2950 c-8 -13 5 -13 25 0 13 8 13 10 -2 10 -9 0 -20 -4 -23 -10z"/>
<path d="M306 2898 c-9 -12 -13 -25 -10 -30 3 -4 -2 -8 -11 -8 -9 0 -14 -4
-11 -9 3 -5 0 -8 -7 -8 -23 3 -107 -57 -107 -76 0 -10 4 -16 9 -13 5 3 11 -3
14 -13 3 -15 1 -18 -11 -14 -11 5 -14 2 -10 -8 4 -9 -8 -29 -28 -49 -34 -33
-42 -50 -24 -50 6 0 15 12 21 28 l11 27 11 -27 12 -27 24 20 c13 10 20 19 15
19 -4 0 0 6 11 13 10 8 15 18 12 24 -4 5 6 16 21 24 35 18 61 50 55 66 -3 8 2
13 13 13 9 0 15 3 11 6 -3 3 3 16 14 27 17 19 21 20 29 7 8 -13 10 -12 10 3 0
15 3 16 21 7 11 -6 24 -21 29 -33 5 -12 9 -19 9 -14 1 12 61 -22 62 -36 1 -6
1 -19 0 -27 0 -10 1 -11 5 -2 8 17 24 15 24 -3 0 -8 4 -15 9 -15 5 0 7 9 4 20
-3 11 -12 20 -19 20 -8 0 -14 5 -14 11 0 7 -17 27 -37 46 -31 30 -35 38 -25
54 10 16 9 19 -3 19 -8 0 -15 5 -15 10 0 6 -5 10 -11 10 -5 0 -7 -6 -3 -12 6
-10 4 -10 -7 -2 -8 6 -31 14 -51 17 -31 5 -40 2 -52 -15z m14 -56 c0 -4 -9
-13 -21 -20 -19 -12 -19 -11 -9 8 10 19 30 28 30 12z m-90 -42 c0 -5 -5 -10
-11 -10 -6 0 -9 -7 -5 -15 3 -9 0 -15 -9 -15 -18 0 -19 5 -3 30 14 21 28 26
28 10z m56 -28 c-4 -23 -20 -13 -23 14 -3 22 -2 24 10 12 8 -7 14 -19 13 -26z
m-109 -104 c-3 -8 -6 -5 -6 6 -1 11 2 17 5 13 3 -3 4 -12 1 -19z"/>
<path d="M711 2904 c0 -11 3 -14 6 -6 3 7 2 16 -1 19 -3 4 -6 -2 -5 -13z"/>
<path d="M390 2831 c0 -5 -7 -11 -15 -13 -10 -2 -8 -6 8 -14 21 -10 23 -8 19
13 -4 23 -12 32 -12 14z"/>
<path d="M2273 2800 c-48 -44 -42 -110 16 -163 21 -20 42 -33 46 -29 4 4 5 3
4 -3 -5 -19 43 -115 58 -115 8 0 12 -3 10 -7 -3 -5 7 -21 22 -38 14 -16 25
-28 24 -26 -2 2 2 10 8 18 7 8 8 13 1 13 -5 0 -8 10 -4 22 3 14 2 19 -6 14 -7
-4 -12 -2 -12 3 0 6 7 11 16 11 12 0 14 4 7 13 -6 6 -13 20 -16 29 -4 12 -1
16 14 13 24 -5 24 4 2 21 -11 8 -13 13 -5 14 20 0 82 -63 87 -89 2 -12 9 -28
14 -35 6 -7 6 -17 1 -26 -14 -21 -12 -30 5 -30 7 0 19 -8 24 -17 6 -10 11 -14
11 -9 0 5 8 2 18 -5 16 -13 16 -13 0 6 -9 11 -17 25 -18 30 -5 24 -20 54 -30
60 -6 4 -9 12 -7 19 6 16 -15 42 -88 107 -33 29 -58 55 -57 57 2 2 1 6 -2 8
-3 2 -4 2 -2 -1 2 -3 -1 -27 -5 -52 -7 -38 -6 -50 8 -65 26 -29 7 -21 -24 10
-15 15 -29 35 -29 44 -1 10 -5 29 -8 44 -5 19 -4 24 6 18 7 -4 10 -4 6 1 -4 4
-3 16 3 27 7 14 6 22 -6 34 -8 8 -15 11 -15 5 0 -6 -4 -11 -10 -11 -5 0 -9 10
-8 23 1 17 -27 77 -36 77 -1 0 -12 -9 -23 -20z m34 -36 c21 -6 22 -8 8 -35
-19 -36 -19 -34 10 -35 14 -1 23 2 20 6 -3 5 -1 11 4 14 18 12 20 -11 3 -30
-10 -10 -21 -28 -25 -39 -7 -18 -9 -17 -27 10 -11 17 -20 42 -20 58 0 15 -4
27 -10 27 -5 0 -7 -7 -4 -15 4 -8 1 -15 -5 -15 -12 0 -14 20 -5 44 7 17 17 19
51 10z m88 -234 c3 -6 -1 -7 -9 -4 -18 7 -21 14 -7 14 6 0 13 -4 16 -10z"/>
<path d="M350 2776 c0 -2 9 -6 20 -9 11 -3 18 -1 14 4 -5 9 -34 13 -34 5z"/>
<path d="M740 2742 c0 -12 19 -26 26 -19 2 2 -2 10 -11 17 -9 8 -15 8 -15 2z"/>
<path d="M5677 2739 c7 -7 15 -10 18 -7 3 3 -2 9 -12 12 -14 6 -15 5 -6 -5z"/>
<path d="M5528 2733 c6 -2 18 -2 25 0 6 3 1 5 -13 5 -14 0 -19 -2 -12 -5z"/>
<path d="M420 2719 c0 -5 5 -7 10 -4 6 3 10 8 10 11 0 2 -4 4 -10 4 -5 0 -10
-5 -10 -11z"/>
<path d="M5798 2723 c7 -3 16 -2 19 1 4 3 -2 6 -13 5 -11 0 -14 -3 -6 -6z"/>
<path d="M5908 2723 c7 -3 16 -2 19 1 4 3 -2 6 -13 5 -11 0 -14 -3 -6 -6z"/>
<path d="M380 2700 c0 -18 -10 -25 -32 -21 -5 0 -8 -6 -8 -14 0 -8 6 -15 14
-15 16 0 40 -27 29 -32 -5 -1 -19 -18 -31 -35 -19 -26 -21 -36 -12 -53 6 -11
7 -20 3 -20 -4 -1 6 -12 22 -26 19 -17 23 -24 11 -20 -16 5 -17 4 -6 -9 15
-18 35 -20 24 -3 -5 7 -2 9 9 5 8 -3 21 1 27 8 7 8 17 13 23 12 7 -1 11 8 10
21 -3 24 4 27 27 12 13 -8 11 -13 -12 -35 -15 -14 -31 -25 -35 -25 -15 0 -13
-48 3 -61 22 -18 42 4 23 27 -13 16 -11 16 14 0 15 -10 27 -22 27 -27 0 -5 7
-6 15 -3 8 4 15 1 15 -5 0 -14 -23 -14 -37 0 -6 6 -16 8 -23 4 -16 -10 24 -52
70 -74 31 -14 35 -21 33 -50 -2 -33 6 -38 11 -7 1 9 6 15 12 14 5 -2 7 -7 6
-13 -2 -5 0 -6 4 -2 5 5 14 -7 20 -25 7 -18 13 -25 13 -15 1 20 5 21 33 6 12
-7 19 -7 17 -1 -5 14 -145 122 -158 122 -5 0 -13 5 -17 11 -4 8 1 9 16 4 17
-5 21 -4 15 5 -5 9 -4 11 4 6 6 -4 9 -11 7 -15 -5 -7 105 -84 138 -97 12 -5
15 -2 10 10 -3 9 -1 16 5 16 6 0 11 -7 11 -15 0 -11 5 -12 24 -5 13 5 27 6 30
3 3 -4 6 -1 6 5 0 15 -43 26 -75 20 -20 -4 -23 -3 -14 8 6 8 20 14 30 14 10 0
21 5 25 12 5 7 2 9 -9 5 -11 -4 -14 -2 -11 7 8 21 55 26 73 8 12 -11 13 -16 3
-20 -6 -2 -12 -8 -12 -14 0 -6 6 -8 14 -5 24 10 26 -5 3 -24 -12 -10 -17 -18
-11 -19 6 0 21 9 33 19 12 10 30 17 40 14 10 -3 22 0 25 6 4 6 2 11 -3 11 -6
0 -11 7 -11 15 0 8 -5 15 -11 15 -5 0 -7 -5 -3 -11 3 -6 0 -15 -7 -20 -20 -12
-29 -11 -29 4 -1 16 -60 81 -83 90 -9 3 -16 12 -15 19 2 7 -2 12 -9 11 -7 -2
-10 3 -8 10 3 6 -24 38 -60 70 -58 52 -68 57 -83 45 -15 -11 -15 -11 -5 2 14
19 -9 56 -28 44 -7 -4 -10 -3 -6 2 3 6 -14 28 -37 51 -41 40 -42 42 -22 51 20
10 20 11 1 11 -31 1 -55 -22 -48 -47 4 -16 1 -22 -10 -22 -8 0 -23 -3 -33 -7
-14 -5 -16 -2 -11 19 4 15 10 33 13 42 3 9 1 16 -5 16 -6 0 -11 -9 -11 -20z
m104 -126 c-9 -7 -12 -18 -7 -30 6 -17 5 -17 -10 -5 -21 17 -22 40 -2 47 10 4
14 14 10 28 -5 18 -3 17 9 -4 13 -22 13 -26 0 -36z m49 9 c4 -20 0 -34 -14
-48 -19 -19 -19 -19 -19 8 0 15 5 27 11 27 6 0 8 -7 4 -17 -5 -14 -4 -15 6 -6
10 10 9 16 -4 31 -21 23 -21 32 -3 32 7 0 16 -12 19 -27z m-93 7 c0 -5 -2 -10
-4 -10 -3 0 -8 5 -11 10 -3 6 -1 10 4 10 6 0 11 -4 11 -10z m140 -94 c0 -15 3
-17 9 -8 6 10 10 9 14 -7 3 -14 0 -21 -9 -21 -16 0 -19 -16 -4 -25 12 -7 42 8
40 21 -1 5 3 10 9 12 7 2 8 -3 4 -14 -4 -12 -3 -15 5 -10 7 4 12 2 12 -3 0 -6
7 -11 15 -11 17 0 20 -16 5 -25 -5 -3 -10 -1 -10 6 0 9 -4 9 -15 -1 -9 -7 -26
-9 -45 -5 -26 6 -30 4 -31 -17 -1 -18 -2 -19 -6 -4 -3 10 0 23 6 29 12 12 -27
47 -56 48 -10 0 -13 3 -5 6 6 2 12 11 12 19 0 9 -5 12 -12 9 -7 -4 -3 3 10 14
27 24 52 18 52 -13z m-160 -27 c0 -6 -4 -7 -10 -4 -5 3 -10 11 -10 16 0 6 5 7
10 4 6 -3 10 -11 10 -16z m137 -55 c-3 -3 -12 -4 -19 -1 -8 3 -5 6 6 6 11 1
17 -2 13 -5z m93 -34 c0 -5 -4 -10 -10 -10 -5 0 -10 5 -10 10 0 6 5 10 10 10
6 0 10 -4 10 -10z m115 0 c3 -5 -1 -10 -9 -10 -9 0 -16 5 -16 10 0 6 4 10 9
10 6 0 13 -4 16 -10z m-129 -57 c-11 -11 -19 6 -11 24 8 17 8 17 12 0 3 -10 2
-21 -1 -24z"/>
<path d="M615 2420 c3 -5 11 -10 16 -10 6 0 7 5 4 10 -3 6 -11 10 -16 10 -6 0
-7 -4 -4 -10z"/>
<path d="M5260 2710 c0 -5 7 -10 15 -10 8 0 15 5 15 10 0 6 -7 10 -15 10 -8 0
-15 -4 -15 -10z"/>
<path d="M5398 2713 c7 -3 16 -2 19 1 4 3 -2 6 -13 5 -11 0 -14 -3 -6 -6z"/>
<path d="M5560 2705 c-8 -9 -8 -15 -2 -15 12 0 26 19 19 26 -2 2 -10 -2 -17
-11z"/>
<path d="M5846 2707 c3 -10 9 -15 12 -12 3 3 0 11 -7 18 -10 9 -11 8 -5 -6z"/>
<path d="M551 2706 c2 -1 17 -10 32 -20 27 -16 27 -16 16 1 -6 11 -20 20 -31
20 -11 1 -19 1 -17 -1z"/>
<path d="M762 2702 c-9 -6 -10 -15 -2 -33 8 -19 9 -20 8 -4 -2 11 1 26 5 33 9
14 7 15 -11 4z"/>
<path d="M5978 2683 c41 -21 52 -32 48 -46 -3 -13 0 -17 10 -13 14 5 64 -51
64 -73 0 -6 -9 -15 -20 -19 -20 -7 -20 -7 0 -20 17 -10 20 -10 20 5 1 16 2 16
15 -1 22 -30 18 -12 -14 57 -36 78 -83 123 -136 131 l-40 6 53 -27z"/>
<path d="M2604 2684 c3 -9 6 -21 6 -27 0 -7 4 -6 10 3 6 10 10 11 10 3 0 -19
24 -16 36 5 11 16 9 18 -17 14 -17 -3 -29 0 -29 7 0 6 -5 11 -11 11 -6 0 -8
-7 -5 -16z"/>
<path d="M5165 2680 c3 -5 8 -10 11 -10 2 0 4 5 4 10 0 6 -5 10 -11 10 -5 0
-7 -4 -4 -10z"/>
<path d="M267 2659 c7 -7 15 -10 18 -7 3 3 -2 9 -12 12 -14 6 -15 5 -6 -5z"/>
<path d="M620 2663 c0 -14 49 -58 57 -50 3 4 4 8 2 10 -2 1 -16 13 -31 26 -16
14 -28 20 -28 14z"/>
<path d="M5060 2660 c-8 -5 -10 -10 -5 -10 6 0 17 5 25 10 8 5 11 10 5 10 -5
0 -17 -5 -25 -10z"/>
<path d="M5720 2650 c0 -5 7 -10 15 -10 8 0 15 5 15 10 0 6 -7 10 -15 10 -8 0
-15 -4 -15 -10z"/>
<path d="M326 2628 c5 -7 2 -9 -9 -5 -9 3 -18 0 -21 -9 -3 -9 -10 -12 -16 -9
-5 3 -10 1 -10 -4 0 -14 17 -14 25 -1 3 6 14 10 24 10 10 0 23 6 29 13 8 10 6
13 -9 14 -12 1 -17 -2 -13 -9z"/>
<path d="M5930 2633 c-19 -2 -42 -7 -50 -10 -25 -11 -54 -11 -67 -1 -7 5 -20
8 -30 5 -14 -4 -13 -5 5 -6 13 0 21 -5 17 -10 -3 -5 5 -11 17 -13 19 -2 23 -9
23 -41 0 -33 3 -37 27 -37 14 0 33 -3 41 -6 15 -6 14 10 -8 84 -7 23 3 26 87
26 9 0 15 3 12 8 -3 4 -13 7 -22 6 -9 0 -33 -3 -52 -5z m-36 -59 c20 -20 20
-34 1 -34 -8 0 -15 4 -15 9 0 5 -3 16 -6 25 -8 20 0 20 20 0z"/>
<path d="M124 2615 c-5 -11 -10 -13 -19 -5 -10 8 -17 5 -29 -12 -20 -28 -20
-34 -2 -41 10 -4 12 1 9 16 -3 13 -1 18 4 12 4 -5 18 -16 31 -23 19 -11 22
-10 23 5 0 14 4 12 12 -7 9 -18 21 -26 45 -28 17 -1 32 1 32 4 0 7 -89 94 -96
94 -2 0 -7 -7 -10 -15z"/>
<path d="M913 2614 c-3 -9 0 -20 8 -25 21 -13 36 -10 18 4 -9 7 -14 18 -12 25
7 18 -7 15 -14 -4z"/>
<path d="M5660 2620 c0 -5 -8 -10 -17 -13 -10 -2 -3 -4 15 -4 34 0 43 11 17
21 -8 3 -15 1 -15 -4z"/>
<path d="M170 2610 c0 -5 6 -10 14 -10 8 0 18 5 21 10 3 6 -3 10 -14 10 -12 0
-21 -4 -21 -10z"/>
<path d="M5251 2602 c-11 -21 -10 -22 33 -22 25 0 48 5 51 10 4 7 -3 8 -20 4
-19 -5 -30 -2 -39 12 -13 17 -14 17 -25 -4z"/>
<path d="M5432 2608 c-4 -3 -25 -8 -47 -11 -23 -2 -9 -4 35 -5 84 -2 130 13
61 20 -23 2 -45 0 -49 -4z"/>
<path d="M4940 2600 c-9 -6 -10 -10 -3 -10 6 0 15 5 18 10 8 12 4 12 -15 0z"/>
<path d="M2668 2593 c7 -3 16 -2 19 1 4 3 -2 6 -13 5 -11 0 -14 -3 -6 -6z"/>
<path d="M710 2565 c0 -8 7 -15 16 -15 8 0 22 -7 30 -15 9 -8 21 -15 27 -15
13 1 -52 59 -65 60 -5 0 -8 -7 -8 -15z"/>
<path d="M2756 2563 c-9 -22 10 -41 25 -26 13 13 5 43 -10 43 -5 0 -12 -8 -15
-17z"/>
<path d="M3790 2566 c0 -8 16 -21 35 -30 19 -9 35 -23 35 -30 0 -16 56 -67 64
-59 3 4 6 1 6 -5 0 -7 9 -12 19 -12 11 0 22 -6 24 -12 4 -10 6 -10 6 0 1 7 -6
15 -14 18 -8 4 -12 10 -9 15 3 5 -1 6 -9 3 -7 -2 -25 4 -38 15 -24 21 -24 21
-2 18 12 -2 26 -6 29 -10 15 -15 26 -6 20 16 -4 18 -1 24 12 24 9 0 19 -4 22
-8 3 -5 16 -10 28 -12 12 -2 25 -6 28 -10 4 -4 12 -7 18 -7 6 0 -3 14 -21 30
-18 17 -37 30 -42 30 -6 0 -8 7 -5 15 5 12 -6 15 -67 16 -41 1 -89 3 -106 5
-23 3 -33 0 -33 -10z"/>
<path d="M5115 2560 c-18 -8 -18 -9 5 -8 14 0 36 4 50 8 24 8 24 8 -5 8 -16 0
-39 -3 -50 -8z"/>
<path d="M5015 2540 c3 -5 13 -10 21 -10 8 0 14 5 14 10 0 6 -9 10 -21 10 -11
0 -17 -4 -14 -10z"/>
<path d="M90 2525 c0 -8 4 -15 10 -15 5 0 7 7 4 15 -4 8 -8 15 -10 15 -2 0 -4
-7 -4 -15z"/>
<path d="M245 2530 c3 -5 8 -10 11 -10 2 0 4 5 4 10 0 6 -5 10 -11 10 -5 0 -7
-4 -4 -10z"/>
<path d="M230 2501 c0 -25 34 -61 56 -60 17 0 16 2 -4 11 -12 6 -22 16 -21 22
3 23 -2 34 -16 40 -10 3 -15 -1 -15 -13z"/>
<path d="M4938 2513 c-9 -2 -19 -10 -21 -18 -4 -10 1 -11 21 -6 14 4 27 12 30
19 4 12 0 13 -30 5z"/>
<path d="M5968 2513 c6 -2 18 -2 25 0 6 3 1 5 -13 5 -14 0 -19 -2 -12 -5z"/>
<path d="M5810 2490 c-12 -8 -10 -10 8 -10 13 0 20 4 17 10 -7 12 -6 12 -25 0z"/>
<path d="M4865 2475 c-25 -12 -26 -14 -5 -9 14 4 29 10 35 15 12 12 5 11 -30
-6z"/>
<path d="M192 2472 c-14 -4 -16 -32 -2 -32 6 0 10 5 10 11 0 8 5 8 15 -1 18
-15 20 -4 2 14 -7 7 -18 11 -25 8z"/>
<path d="M4010 2460 c6 -11 15 -18 21 -15 13 9 11 13 -12 25 -19 11 -20 10 -9
-10z"/>
<path d="M2494 2459 c-3 -5 2 -9 10 -9 9 0 16 -7 16 -15 0 -22 15 -18 17 4 2
20 -33 36 -43 20z"/>
<path d="M4095 2441 c26 -29 27 -32 7 -22 -18 10 -23 9 -28 -2 -2 -7 -10 -14
-17 -15 -12 -1 -75 -9 -91 -11 -5 -1 -3 -8 4 -16 7 -9 29 -15 52 -15 24 0 37
-4 33 -10 -4 -6 -11 -8 -16 -4 -8 5 -49 -31 -49 -43 0 -4 99 6 117 12 7 2 10
-2 6 -11 -3 -8 1 -14 11 -14 9 0 17 5 17 10 1 6 2 15 3 22 2 18 23 20 30 3 4
-11 2 -14 -7 -9 -6 4 -4 -2 7 -12 13 -14 20 -15 23 -6 3 6 11 12 18 12 7 0 23
9 36 20 l24 19 -32 -9 c-18 -4 -36 -11 -41 -14 -10 -6 -34 39 -25 48 3 3 14 1
25 -5 17 -9 19 -8 13 10 -4 13 -2 21 5 21 6 0 8 5 5 10 -9 15 -63 12 -62 -2 1
-34 -4 -48 -19 -48 -14 0 -14 3 -3 16 11 13 6 21 -32 57 -31 30 -35 32 -14 8z"/>
<path d="M6147 2449 c4 -13 8 -18 11 -10 2 7 -1 18 -6 23 -8 8 -9 4 -5 -13z"/>
<path d="M4278 2450 c-47 -14 -54 -22 -27 -33 33 -13 79 -16 79 -6 0 5 5 9 11
9 5 0 7 -4 4 -10 -3 -5 -1 -10 4 -10 6 0 12 5 12 10 1 6 2 16 3 23 3 26 -33
33 -86 17z"/>
<path d="M70 2440 c0 -5 5 -10 11 -10 5 0 7 5 4 10 -3 6 -8 10 -11 10 -2 0 -4
-4 -4 -10z"/>
<path d="M308 2436 c-20 -15 -18 -17 52 -65 19 -14 39 -30 43 -38 9 -14 37
-18 37 -5 0 12 -52 48 -94 66 -43 18 -49 40 -9 30 26 -7 27 -6 11 9 -20 20
-18 20 -40 3z"/>
<path d="M863 2442 c-8 -5 -7 -12 4 -27 15 -20 15 -20 8 3 -8 26 2 29 22 5 13
-16 13 -16 3 5 -11 23 -18 26 -37 14z"/>
<path d="M5065 2440 c3 -5 8 -10 11 -10 2 0 4 5 4 10 0 6 -5 10 -11 10 -5 0
-7 -4 -4 -10z"/>
<path d="M4387 2423 c4 -10 8 -12 11 -5 2 7 16 9 35 6 26 -3 28 -2 12 5 -11 5
-30 10 -42 10 -17 1 -21 -3 -16 -16z"/>
<path d="M4808 2433 c7 -3 16 -2 19 1 4 3 -2 6 -13 5 -11 0 -14 -3 -6 -6z"/>
<path d="M2477 2416 c-4 -9 -1 -16 6 -16 9 0 8 -3 -1 -9 -11 -6 -10 -10 5 -16
10 -5 23 -9 28 -9 6 -1 10 -10 11 -21 1 -12 20 -48 43 -82 22 -33 41 -68 41
-77 0 -9 7 -16 16 -16 11 0 14 -6 9 -22 -5 -20 -4 -21 5 -5 6 9 16 17 23 17 7
0 6 -4 -3 -10 -20 -13 -9 -20 38 -24 23 -2 49 -10 59 -17 15 -12 16 -12 10 5
-6 16 -5 17 8 6 8 -7 15 -9 15 -5 0 4 7 2 15 -5 12 -10 18 -10 30 0 15 12 16
11 19 -10 1 -11 9 -12 32 -3 8 3 20 1 27 -6 8 -8 17 -5 36 12 13 12 21 16 17
9 -6 -10 -2 -10 18 0 14 6 26 15 26 20 0 5 5 6 12 2 8 -5 9 -1 5 12 -7 18 -7
18 8 0 15 -20 15 -20 17 0 0 10 0 31 -1 47 -1 15 8 41 20 59 13 17 18 28 11
24 -7 -4 -12 -1 -12 8 0 18 29 35 48 29 6 -3 12 2 12 11 0 10 -6 13 -17 10
-40 -13 -61 -27 -57 -38 2 -6 -3 -20 -11 -31 -16 -19 -16 -19 -10 8 5 26 4 27
-15 17 -12 -7 -19 -18 -16 -25 3 -8 1 -17 -4 -20 -6 -4 -10 -1 -10 5 0 6 -5 8
-10 5 -6 -4 -8 -10 -5 -15 3 -5 -4 -11 -14 -15 -11 -3 -31 -19 -44 -35 -14
-16 -27 -26 -30 -23 -3 3 -16 -2 -29 -11 -26 -18 -38 -20 -38 -6 0 6 9 10 20
10 11 0 20 5 20 10 0 13 -1 13 -54 -10 -64 -27 -95 -18 -155 45 -50 53 -56 77
-29 112 6 7 5 20 -2 32 -14 28 -21 26 -16 -3 3 -19 1 -23 -14 -19 -23 6 -34
31 -20 48 11 14 3 25 -18 25 -8 0 -12 -6 -8 -15 9 -25 -7 -17 -35 16 -21 26
-27 29 -32 15z m188 -236 c3 -5 2 -10 -4 -10 -5 0 -13 5 -16 10 -3 6 -2 10 4
10 5 0 13 -4 16 -10z m328 -10 c3 -11 3 -20 1 -20 -2 0 -8 9 -14 20 -6 11 -7
20 -2 20 6 0 12 -9 15 -20z m47 10 c0 -5 -4 -10 -10 -10 -5 0 -10 5 -10 10 0
6 5 10 10 10 6 0 10 -4 10 -10z m-60 -41 c0 -14 -27 -10 -33 5 -4 10 0 12 14
9 10 -3 19 -9 19 -14z m-80 -15 c0 -2 -7 -4 -15 -4 -8 0 -15 4 -15 10 0 5 7 7
15 4 8 -4 15 -8 15 -10z"/>
<path d="M4470 2419 c0 -5 7 -12 16 -16 13 -5 13 -7 2 -14 -9 -6 -3 -10 20
-15 17 -4 32 -11 32 -16 0 -5 -9 -6 -20 -3 -26 8 -26 -6 -1 -22 17 -11 21 -9
26 8 5 16 10 18 21 8 17 -14 19 2 2 19 -19 19 4 14 31 -7 20 -15 22 -21 12
-37 -9 -14 -11 -14 -7 -2 7 24 -5 30 -20 11 -10 -15 -9 -20 7 -31 15 -11 23
-11 34 -2 8 6 19 9 24 5 6 -3 8 0 5 9 -5 12 1 13 38 4 24 -5 53 -15 65 -20 18
-9 27 -8 44 7 17 16 22 17 29 5 7 -11 13 -12 37 -1 23 11 25 14 12 22 -9 4
-41 6 -70 3 -118 -11 -159 -5 -199 30 -22 20 -58 39 -85 46 -5 1 -20 6 -32 11
-15 5 -23 5 -23 -2z"/>
<path d="M4758 2413 c7 -3 16 -2 19 1 4 3 -2 6 -13 5 -11 0 -14 -3 -6 -6z"/>
<path d="M4410 2401 c0 -5 9 -11 20 -14 12 -3 20 0 20 7 0 6 -9 12 -20 13 -11
1 -20 -2 -20 -6z"/>
<path d="M920 2391 c0 -5 11 -12 25 -15 17 -4 23 -11 18 -23 -5 -12 -2 -15 10
-10 15 5 16 3 7 -12 -5 -11 -15 -21 -22 -23 -13 -5 -2 -28 13 -28 6 0 8 4 5 9
-3 5 2 8 12 7 28 -2 24 66 -5 79 -13 5 -23 13 -23 17 0 5 -9 8 -20 8 -11 0
-20 -4 -20 -9z"/>
<path d="M6172 2383 c-5 -10 -6 -26 -1 -38 l9 -20 -2 20 c-2 11 1 26 6 33 4 7
6 16 3 19 -3 2 -10 -4 -15 -14z"/>
<path d="M4655 2380 c-28 -7 -28 -8 -5 -9 14 0 32 4 40 9 17 11 8 11 -35 0z"/>
<path d="M872 2364 c10 -10 20 -15 24 -12 3 4 -5 12 -18 18 -22 12 -22 12 -6
-6z"/>
<path d="M4475 2360 c3 -5 8 -10 11 -10 2 0 4 5 4 10 0 6 -5 10 -11 10 -5 0
-7 -4 -4 -10z"/>
<path d="M4935 2360 c-8 -13 5 -13 25 0 13 8 13 10 -2 10 -9 0 -20 -4 -23 -10z"/>
<path d="M4375 2342 c17 -10 53 -21 80 -24 58 -6 26 7 -85 37 -23 6 -22 5 5
-13z"/>
<path d="M6015 2350 c-3 -5 1 -10 10 -10 9 0 13 5 10 10 -3 6 -8 10 -10 10 -2
0 -7 -4 -10 -10z"/>
<path d="M1922 2325 c-7 -8 -9 -15 -4 -15 5 0 15 7 22 15 16 19 -1 19 -18 0z"/>
<path d="M3146 2331 c-10 -16 17 -24 69 -19 25 2 45 0 45 -4 0 -12 14 -9 36 6
19 15 19 15 -1 15 -11 1 -48 4 -81 7 -41 4 -64 2 -68 -5z"/>
<path d="M3806 2315 c9 -14 21 -25 27 -25 6 0 0 11 -13 25 -13 14 -25 25 -27
25 -2 0 4 -11 13 -25z"/>
<path d="M5198 2333 c-10 -2 -18 -9 -18 -14 0 -6 8 -5 20 1 11 6 20 13 20 15
0 3 -1 4 -2 4 -2 -1 -11 -3 -20 -6z"/>
<path d="M5393 2332 c-49 -5 -50 -29 0 -43 32 -8 50 -8 74 0 23 9 38 9 52 2
11 -6 32 -11 48 -11 26 0 28 -3 30 -47 2 -37 8 -52 33 -74 16 -15 30 -33 30
-38 0 -6 5 -11 10 -11 6 0 10 10 10 23 1 19 2 20 11 5 7 -12 7 -24 0 -37 -8
-15 -7 -20 6 -25 9 -4 21 -2 27 4 7 7 5 10 -7 10 -9 0 -17 5 -17 10 0 7 7 7
20 0 11 -6 18 -15 15 -20 -3 -5 -1 -11 5 -15 5 -3 10 -11 10 -17 0 -7 -5 -6
-15 2 -8 7 -21 10 -29 7 -8 -3 -17 -3 -21 1 -4 4 -10 8 -13 8 -4 1 -18 5 -31
10 -20 6 -22 8 -8 13 12 4 14 10 7 21 -9 13 -11 13 -21 0 -8 -12 -9 -9 -5 11
l6 27 -67 -14 c-93 -20 -129 -15 -187 24 -69 46 -98 51 -123 18 -12 -14 -28
-26 -36 -26 -22 0 -40 -26 -32 -49 7 -22 -10 -37 -28 -23 -21 16 -83 33 -100
26 -22 -8 -22 -23 1 -31 9 -4 19 -9 22 -12 9 -11 50 -31 50 -25 0 3 -10 14
-22 25 -18 14 -20 18 -7 19 21 0 69 -48 69 -70 0 -25 10 -30 32 -17 16 10 22
9 36 -8 39 -46 84 -76 106 -69 30 9 31 12 11 34 -20 22 -14 26 15 10 15 -8 22
-6 32 9 13 18 21 19 82 11 43 -5 80 -16 97 -29 24 -18 28 -18 33 -4 5 12 9 13
20 4 16 -14 46 -4 46 15 0 8 5 14 10 14 18 0 11 -40 -7 -41 -12 0 -9 -4 8 -10
23 -9 26 -15 24 -51 -2 -32 1 -42 16 -45 11 -3 19 -12 19 -19 0 -18 37 -18 55
-1 16 17 1 49 -20 41 -8 -4 -15 -1 -15 5 0 6 4 11 10 11 6 0 6 9 -1 26 -9 26
-9 26 20 -5 16 -17 35 -31 43 -31 7 0 25 -15 39 -33 22 -28 25 -36 14 -50 -16
-22 -25 -22 -25 2 0 20 -32 34 -56 24 -16 -6 -19 -23 -4 -23 6 0 10 -7 10 -16
0 -10 6 -14 14 -11 9 4 12 0 9 -12 -2 -10 3 -23 11 -30 9 -8 16 -11 16 -7 0 3
14 -6 30 -21 17 -14 30 -30 30 -34 0 -5 -28 -10 -62 -12 -62 -3 -62 -3 15 -5
42 -1 77 -6 77 -11 0 -6 11 -22 25 -37 14 -15 25 -31 25 -35 0 -5 18 -9 40 -9
28 0 40 4 40 14 0 8 -4 18 -10 21 -5 3 -10 11 -10 16 0 6 5 7 10 4 18 -11 80
67 95 120 17 60 22 126 11 143 -13 21 -4 22 59 6 86 -23 172 -8 224 39 29 25
31 32 31 95 0 40 -5 73 -12 80 -9 9 -9 12 0 12 7 0 12 11 12 25 0 14 -4 25
-10 25 -5 0 -10 5 -10 11 0 5 5 7 10 4 6 -4 10 17 10 55 0 57 -1 61 -20 55
-11 -4 -20 -2 -20 4 0 6 -17 19 -39 30 -48 25 -177 23 -207 -3 -11 -9 -28 -22
-39 -30 -20 -14 -20 -15 -1 -22 12 -5 21 -3 24 4 2 7 11 12 19 12 9 0 13 6 10
14 -8 20 4 28 21 14 8 -7 31 -11 51 -9 25 1 42 -3 51 -14 12 -15 12 -17 -5
-15 -43 5 -65 -1 -65 -15 0 -17 16 -20 25 -5 3 6 13 10 22 10 11 0 14 -7 11
-24 -3 -16 0 -27 10 -31 11 -4 12 -9 4 -17 -8 -8 -15 -6 -27 6 -18 18 -45 22
-45 6 0 -5 3 -9 8 -9 19 3 33 -2 28 -10 -3 -5 8 -11 25 -15 29 -5 29 -6 14
-29 -14 -22 -13 -25 15 -51 38 -34 30 -54 -11 -26 -31 23 -35 20 -19 -11 8
-15 7 -19 -5 -19 -8 0 -15 5 -15 10 0 15 -47 12 -53 -4 -6 -15 -34 -15 -146 1
-44 7 -68 16 -78 29 -8 10 -18 18 -22 17 -4 -1 -6 14 -5 33 3 32 2 34 -18 23
-15 -8 -17 -13 -8 -19 8 -5 9 -13 2 -26 -5 -11 -7 -24 -5 -30 6 -17 -27 -26
-44 -13 -7 7 -16 9 -20 5 -3 -3 -1 -6 6 -6 7 0 9 -5 6 -10 -5 -8 -11 -8 -20 0
-10 8 -15 8 -20 0 -4 -6 -16 -8 -27 -4 -17 5 -20 3 -15 -10 5 -13 3 -15 -10
-8 -9 5 -23 8 -32 7 -9 -1 -10 0 -3 2 20 7 14 33 -8 33 -11 0 -20 4 -20 9 0 5
-3 18 -6 28 -4 13 -3 15 4 4 6 -8 18 -11 31 -6 14 4 21 2 21 -6 0 -7 2 -10 5
-7 12 12 -7 36 -26 31 -10 -3 -19 0 -19 6 0 10 16 15 48 14 6 -1 12 3 12 8 0
5 5 9 10 9 6 0 10 -7 10 -15 0 -21 18 -19 32 5 7 11 17 20 22 20 5 0 18 7 28
17 17 15 18 15 18 -5 0 -11 -5 -23 -10 -25 -6 -3 -5 -4 2 -3 7 1 17 12 23 24
11 25 27 30 18 5 -4 -10 -2 -14 5 -9 6 3 15 -1 20 -10 6 -11 11 -13 16 -5 4 6
2 11 -3 11 -6 0 -11 4 -11 8 0 4 23 7 51 6 36 -2 52 1 56 12 3 7 9 11 14 8 5
-3 9 -1 9 4 0 6 -7 13 -15 16 -13 5 -14 9 -3 28 7 13 12 27 13 31 0 4 11 19
24 33 13 13 21 28 17 32 -4 3 -10 2 -14 -3 -4 -6 -20 -17 -37 -25 -16 -8 -41
-25 -54 -37 -13 -13 -32 -23 -41 -23 -10 0 -23 -7 -30 -15 -7 -9 -19 -14 -27
-11 -8 3 -12 2 -8 -3 5 -9 -38 -27 -85 -35 -14 -2 -36 3 -49 11 -17 11 -25 12
-31 4 -4 -8 -14 -5 -32 9 -15 11 -33 20 -42 20 -8 0 -25 13 -37 30 -12 16 -27
26 -32 23 -6 -3 -7 -1 -3 5 9 15 -48 54 -68 46 -9 -3 -29 -2 -44 4 -32 12
-114 20 -159 14z m1027 -62 c27 -17 0 -24 -33 -7 -30 15 -31 16 -7 16 14 0 32
-3 40 -9z m-26 -46 c11 -28 6 -39 -9 -20 -8 11 -15 23 -15 28 0 14 18 9 24 -8z
m-299 -25 c-6 -16 -9 -18 -16 -8 -4 8 -3 19 3 26 15 18 21 9 13 -18z m280 -27
c-9 -9 -36 28 -29 40 4 5 13 0 21 -12 8 -12 12 -24 8 -28z m-315 24 c0 -3 -4
-8 -10 -11 -5 -3 -10 -1 -10 4 0 6 5 11 10 11 6 0 10 -2 10 -4z m372 -56 c-2
-16 -9 -27 -14 -24 -5 4 -8 14 -5 24 3 13 0 17 -9 13 -20 -8 -17 14 3 26 23
12 31 -1 25 -39z m-1127 1 c-6 -5 -25 10 -25 20 0 5 6 4 14 -3 8 -7 12 -15 11
-17z m-51 -7 c20 -8 20 -20 0 -28 -9 -4 -13 -2 -8 5 4 6 0 15 -7 20 -16 10 -8
12 15 3z m1136 -24 c-6 -11 -8 -26 -4 -32 5 -8 2 -9 -10 -5 -10 4 -20 7 -22 7
-8 0 31 49 39 50 4 0 3 -9 -3 -20z m-996 -25 c8 -8 17 -15 21 -15 12 0 35 -29
27 -34 -13 -8 -84 13 -103 30 -8 8 -21 14 -27 14 -7 0 -12 5 -12 10 0 16 77
12 94 -5z m-153 -31 c12 -14 11 -16 -5 -13 -11 2 -21 10 -24 17 -5 17 13 15
29 -4z m368 -11 c8 -17 9 -29 2 -36 -11 -11 -14 -5 -24 41 -7 30 7 28 22 -5z
m-124 -21 c-3 -3 -11 0 -18 7 -9 10 -8 11 6 5 10 -3 15 -9 12 -12z m255 -26
c0 -9 -13 -7 -29 3 -7 5 -10 14 -7 20 5 8 11 7 22 -3 8 -8 14 -17 14 -20z
m280 24 c0 -5 -2 -10 -4 -10 -3 0 -8 5 -11 10 -3 6 -1 10 4 10 6 0 11 -4 11
-10z m-56 -16 c6 2 8 1 4 -1 -5 -3 -8 -14 -8 -24 0 -11 4 -18 9 -14 5 3 12 1
16 -5 3 -5 -3 -10 -14 -10 -15 0 -21 6 -21 23 0 13 -4 28 -10 35 -7 8 -7 9 1
3 6 -5 17 -8 23 -7z m206 -29 c0 -8 -7 -15 -16 -15 -14 0 -14 3 -4 15 7 8 14
15 16 15 2 0 4 -7 4 -15z m124 0 c-4 -9 1 -17 12 -21 52 -17 76 -28 67 -31 -6
-2 -28 3 -48 11 -20 9 -42 13 -47 10 -5 -4 -21 0 -34 7 l-25 13 33 12 c45 16
48 16 42 -1z m75 -14 c-3 -6 -10 -7 -18 -2 -7 5 -10 14 -6 21 9 14 29 -2 24
-19z m-649 9 c0 -5 -2 -10 -4 -10 -3 0 -8 5 -11 10 -3 6 -1 10 4 10 6 0 11 -4
11 -10z m205 0 c3 -5 1 -10 -4 -10 -6 0 -11 5 -11 10 0 6 2 10 4 10 3 0 8 -4
11 -10z m-115 -10 c0 -5 -4 -10 -10 -10 -5 0 -10 5 -10 10 0 6 5 10 10 10 6 0
10 -4 10 -10z m400 -24 c-7 -7 -14 -6 -21 1 -9 9 -7 12 9 10 14 -1 18 -5 12
-11z m-386 -7 c-4 -8 1 -9 17 -4 50 16 224 2 282 -22 35 -15 50 -33 26 -33 -6
0 -7 -5 -2 -12 15 -26 18 -85 6 -137 -10 -43 -52 -76 -85 -68 -21 6 -23 11
-21 49 l3 43 -14 -30 c-12 -25 -15 -27 -15 -9 -1 11 -10 29 -21 39 -11 10 -20
23 -20 28 0 13 -73 81 -129 121 -40 29 -51 46 -30 46 5 0 7 -5 3 -11z m491
-60 c4 -5 -10 -2 -29 8 -20 9 -36 23 -36 31 0 10 8 8 30 -8 16 -11 32 -25 35
-31z m-85 31 c0 -5 -2 -10 -4 -10 -3 0 -8 5 -11 10 -3 6 -1 10 4 10 6 0 11 -4
11 -10z m154 2 c2 -4 -4 -9 -15 -9 -10 -1 -19 2 -19 8 0 11 27 12 34 1z m-391
-189 c-8 -3 -7 -11 3 -31 8 -15 14 -42 14 -60 l0 -33 -30 31 c-16 17 -30 32
-30 33 0 1 -4 16 -9 34 -7 23 -5 37 6 53 l15 22 22 -22 c13 -14 17 -24 9 -27z
m47 -103 c0 -5 -2 -10 -4 -10 -3 0 -8 5 -11 10 -3 6 -1 10 4 10 6 0 11 -4 11
-10z"/>
<path d="M6037 1834 c-11 -11 -8 -64 3 -64 6 0 13 7 17 16 7 18 -9 58 -20 48z"/>
<path d="M3882 2319 c2 -6 8 -10 13 -10 5 0 11 4 13 10 2 6 -4 11 -13 11 -9 0
-15 -5 -13 -11z"/>
<path d="M440 2302 c0 -4 17 -21 38 -38 27 -23 42 -29 57 -23 17 6 17 8 3 8
-10 1 -20 1 -23 1 -9 -1 -31 24 -36 39 -5 14 -39 25 -39 13z"/>
<path d="M3855 2300 c-3 -5 1 -10 9 -10 9 0 16 5 16 10 0 6 -4 10 -9 10 -6 0
-13 -4 -16 -10z"/>
<path d="M4530 2296 c0 -2 7 -9 15 -16 9 -7 15 -8 15 -2 0 5 -7 12 -15 16 -8
3 -15 4 -15 2z"/>
<path d="M2266 2283 c-11 -11 -6 -23 9 -23 8 0 15 4 15 9 0 13 -16 22 -24 14z"/>
<path d="M3986 2265 c19 -28 19 -29 0 -22 -15 6 -17 4 -12 -15 3 -13 6 -27 6
-33 1 -5 7 5 16 24 14 33 13 36 -7 55 l-21 21 18 -30z"/>
<path d="M4626 2268 c16 -55 51 -104 51 -73 0 8 -4 15 -8 15 -3 0 -9 9 -12 20
-3 11 0 18 6 17 6 -1 12 6 14 15 3 12 -1 15 -16 11 -12 -3 -21 -1 -21 6 0 6
-5 11 -11 11 -6 0 -8 -9 -3 -22z"/>
<path d="M93 2264 c18 -21 24 -49 8 -40 -5 3 -11 0 -14 -8 -7 -19 16 -27 53
-19 24 4 28 8 19 19 -9 11 -15 12 -25 3 -12 -9 -14 -7 -12 11 2 14 -6 27 -22
38 -25 16 -25 16 -7 -4z"/>
<path d="M1945 2269 c-4 -6 -5 -12 -2 -15 2 -3 7 2 10 11 7 17 1 20 -8 4z"/>
<path d="M2788 2263 c7 -3 16 -2 19 1 4 3 -2 6 -13 5 -11 0 -14 -3 -6 -6z"/>
<path d="M785 2239 c-19 -9 -18 -9 3 -5 14 3 22 -1 22 -10 0 -8 5 -14 12 -14
6 0 8 3 5 7 -4 3 1 12 11 19 15 12 15 13 -8 13 -14 0 -34 -5 -45 -10z"/>
<path d="M918 2233 c0 -10 0 -26 0 -36 1 -10 -3 -15 -8 -12 -6 3 -10 -3 -10
-14 0 -12 5 -21 10 -21 6 0 10 4 10 10 0 5 6 7 13 4 9 -3 12 6 9 36 -4 41 -21
65 -24 33z"/>
<path d="M5095 2239 c-4 -6 -5 -12 -2 -15 2 -3 7 2 10 11 7 17 1 20 -8 4z"/>
<path d="M6186 2235 c-11 -9 -14 -15 -7 -15 7 0 19 7 27 15 20 19 5 19 -20 0z"/>
<path d="M1735 2203 c-34 -29 -36 -33 -15 -27 14 4 28 11 32 17 4 7 12 6 22
-3 9 -7 20 -10 23 -6 4 4 2 10 -4 14 -6 4 -12 14 -14 24 -3 13 -11 10 -44 -19z"/>
<path d="M743 2216 c18 -19 14 -41 -6 -30 -7 4 -4 -1 5 -11 10 -11 21 -16 25
-12 10 11 -10 60 -27 65 -11 4 -10 1 3 -12z"/>
<path d="M556 2212 c-5 -8 39 -62 49 -62 3 0 14 9 25 20 13 13 15 20 7 20 -7
0 -18 -5 -25 -12 -9 -9 -12 -9 -12 0 0 7 -7 12 -15 12 -9 0 -12 6 -9 15 6 16
-11 21 -20 7z"/>
<path d="M6158 2203 c6 -2 12 -13 12 -24 0 -23 15 -25 24 -4 5 14 -21 36 -41
34 -4 0 -2 -3 5 -6z"/>
<path d="M3950 2180 c-8 -16 -8 -20 4 -20 8 0 18 5 22 12 5 7 3 8 -6 3 -10 -6
-12 -4 -7 8 9 24 0 21 -13 -3z"/>
<path d="M2560 2163 c-14 -13 -20 -23 -15 -22 22 4 29 -2 15 -12 -12 -8 -10
-9 8 -4 12 4 22 2 22 -4 0 -6 7 -8 15 -5 20 8 19 24 -3 50 l-17 22 -25 -25z"/>
<path d="M193 2160 c1 -11 5 -20 9 -20 11 0 10 28 -1 35 -6 3 -9 -4 -8 -15z"/>
<path d="M660 2170 c0 -5 5 -10 11 -10 5 0 7 -4 4 -10 -3 -5 -16 -10 -27 -10
-20 0 -17 -13 3 -16 22 -3 23 -5 12 -12 -8 -5 -9 -13 -3 -22 8 -13 10 -12 10
3 0 9 4 17 8 17 14 0 52 40 51 53 0 9 -2 9 -6 0 -7 -18 -32 -16 -39 2 -7 17
-24 20 -24 5z"/>
<path d="M3309 2162 c-41 -32 -179 -73 -179 -53 0 4 -16 12 -35 18 -20 6 -35
7 -35 2 0 -5 4 -9 10 -9 5 0 7 -6 4 -13 -3 -8 7 -17 23 -24 24 -9 20 -10 -35
-9 -35 0 -66 -4 -70 -10 -4 -6 -16 -14 -26 -18 -20 -7 -20 -7 0 15 10 12 14
19 7 16 -6 -4 -13 -1 -16 5 -3 10 -7 10 -18 2 -8 -6 -23 -10 -35 -9 -11 1 -21
-4 -21 -11 0 -7 11 -11 24 -9 14 1 27 -4 30 -11 3 -8 12 -14 20 -14 12 0 14
-8 11 -32 -4 -23 0 -37 11 -45 13 -10 11 -11 -14 -4 -16 4 -37 6 -45 4 -8 -2
-3 4 13 14 44 29 36 47 -19 38 -26 -3 -53 -9 -60 -12 -8 -3 -14 0 -14 6 0 6 9
11 20 11 11 0 20 4 20 10 0 6 -9 6 -25 0 -14 -5 -29 -9 -33 -9 -17 3 -32 -2
-32 -10 0 -5 10 -7 23 -5 16 3 14 1 -6 -7 -15 -6 -35 -7 -45 -3 -25 11 -35 11
-56 1 -12 -6 -16 -6 -12 1 3 6 -4 12 -16 14 -20 4 -18 6 12 16 30 10 31 11 5
6 -16 -3 -39 -7 -51 -8 -11 -1 -26 -6 -32 -10 -13 -8 -135 -11 -162 -5 -8 2
-23 11 -33 20 -10 9 -42 19 -71 21 -37 3 -63 12 -86 30 -28 22 -37 24 -57 15
-12 -5 -23 -13 -23 -16 1 -16 138 -91 166 -91 17 0 38 -8 47 -17 12 -14 30
-18 77 -17 41 1 63 -3 67 -12 7 -18 -14 -52 -36 -59 -11 -3 -22 -13 -25 -21
-3 -8 -2 -12 4 -9 6 3 10 1 10 -4 0 -6 -5 -11 -11 -11 -5 0 -7 -4 -4 -10 3 -5
13 -10 21 -10 8 0 12 5 9 11 -4 5 1 19 11 30 13 15 19 17 26 7 6 -10 10 -10
18 2 7 11 10 11 10 2 0 -7 4 -11 8 -8 5 3 7 19 4 36 -4 25 -1 30 17 30 11 0
20 -3 20 -7 -1 -5 -1 -17 0 -28 1 -15 3 -17 10 -6 5 7 6 22 3 33 -2 10 -1 18
4 17 29 -5 55 2 48 14 -6 9 -5 9 7 1 8 -7 28 -10 44 -9 17 2 40 -3 52 -11 12
-8 42 -14 66 -14 23 0 49 -6 57 -12 11 -10 11 -9 0 7 -8 11 -19 23 -25 27 -15
11 -27 9 -20 -3 5 -7 -2 -9 -19 -7 -36 4 -38 22 -3 26 15 2 25 7 22 12 -3 4 3
7 12 5 10 -2 20 -4 23 -4 3 -1 -1 -5 -8 -10 -18 -11 32 -24 59 -16 10 4 19 2
19 -4 0 -6 7 -8 15 -5 8 4 17 -1 21 -10 3 -9 11 -13 16 -10 6 4 5 10 -3 15
-10 6 -8 10 8 16 20 7 23 11 23 31 0 4 13 8 30 8 16 1 27 -2 24 -7 -3 -5 -11
-8 -18 -7 -6 2 -13 0 -14 -4 -5 -18 55 0 62 18 4 9 22 14 55 14 39 0 55 -5 72
-22 12 -13 18 -16 14 -8 -4 8 5 4 21 -11 47 -41 69 -56 60 -41 -10 16 13 36
66 58 21 9 35 20 32 25 -6 10 113 89 134 89 6 0 12 5 12 10 0 13 -27 13 -35
-1 -4 -6 -14 -8 -22 -5 -8 3 -12 2 -9 -3 6 -9 -26 -26 -61 -34 -13 -3 -23 -1
-23 4 0 5 5 9 11 9 5 0 8 4 4 9 -3 5 -1 12 4 15 17 11 -1 47 -30 62 -16 8 -29
19 -29 24 0 17 -76 11 -101 -8z m96 -22 c3 -6 3 -19 0 -30 -5 -16 -10 -18 -26
-10 -15 9 -17 15 -9 30 12 22 25 26 35 10z m-80 -40 c10 9 15 9 15 1 0 -6 -4
-11 -9 -11 -5 0 -7 -9 -4 -20 3 -11 0 -20 -6 -20 -6 0 -11 5 -11 12 0 6 -8 4
-19 -6 -25 -23 -72 -7 -64 23 6 22 49 33 71 18 7 -6 18 -5 27 3z m-114 -54 c7
-25 6 -27 -19 -25 -15 2 -33 -1 -41 -5 -9 -6 -12 -5 -7 2 3 5 1 12 -6 14 -7 3
-9 12 -5 23 7 18 8 18 21 0 13 -18 14 -18 21 4 9 29 27 22 36 -13z m-164 -37
c-46 -12 -66 18 -24 36 18 9 24 7 34 -10 10 -17 9 -21 -10 -26z m72 38 c-2 -1
-13 -9 -24 -17 -19 -14 -19 -14 -6 3 7 9 18 17 24 17 6 0 8 -1 6 -3z m191 -18
c0 -5 -4 -9 -10 -9 -5 0 -10 7 -10 16 0 8 5 12 10 9 6 -3 10 -10 10 -16z m-65
1 c3 -5 1 -10 -4 -10 -6 0 -11 5 -11 10 0 6 2 10 4 10 3 0 8 -4 11 -10z m92
-32 c-3 -8 -6 -5 -6 6 -1 11 2 17 5 13 3 -3 4 -12 1 -19z m64 -9 c10 -6 5 -8
-13 -7 -16 1 -28 3 -28 4 0 1 3 10 6 19 5 12 9 13 14 5 4 -7 14 -16 21 -21z
m-291 11 c0 -5 -10 -10 -22 -10 -19 0 -20 2 -8 10 19 13 30 13 30 0z m-670
-25 c0 -1 -6 -7 -13 -13 -10 -8 -13 -6 -14 8 -1 13 3 17 13 13 8 -3 14 -6 14
-8z m70 -5 c0 -5 -2 -10 -4 -10 -3 0 -8 5 -11 10 -3 6 -1 10 4 10 6 0 11 -4
11 -10z m60 -30 c0 -5 -4 -10 -10 -10 -5 0 -10 5 -10 10 0 6 5 10 10 10 6 0
10 -4 10 -10z m0 -30 c0 -5 -2 -10 -4 -10 -3 0 -8 5 -11 10 -3 6 -1 10 4 10 6
0 11 -4 11 -10z"/>
<path d="M4701 2165 c-1 -17 -3 -18 -11 -5 -7 11 -10 7 -10 -17 0 -17 -4 -34
-9 -38 -5 -3 -9 -30 -8 -59 2 -30 -1 -52 -5 -50 -8 5 -10 -4 -12 -56 -1 -20
-6 -25 -26 -25 -14 0 -24 -5 -23 -10 1 -6 -6 -11 -16 -11 -20 0 -17 36 3 36 6
0 4 5 -6 10 -25 15 -50 2 -38 -20 16 -30 12 -35 -12 -14 l-21 19 18 -28 c10
-15 16 -30 13 -32 -6 -6 -48 6 -48 15 0 4 -11 5 -25 2 -18 -3 -30 1 -40 14
-13 17 -14 17 -15 2 0 -9 -5 -18 -12 -20 -9 -3 -9 -12 1 -36 7 -18 18 -32 23
-32 5 0 7 -4 4 -9 -4 -5 -1 -11 6 -13 10 -4 9 -8 -2 -19 -9 -8 -20 -15 -25
-15 -6 -1 -23 -4 -40 -7 -27 -5 -27 -4 7 11 39 17 49 32 24 32 -8 0 -22 3 -32
7 -13 5 -15 3 -9 -7 6 -10 4 -11 -6 -4 -18 11 -69 13 -91 2 -12 -6 -20 -3 -26
9 -9 14 -10 14 -17 -6 -11 -35 8 -46 45 -28 29 15 31 15 25 -2 -4 -13 1 -20
15 -24 11 -3 20 0 20 5 0 7 5 6 14 -1 14 -12 61 -7 108 11 31 11 36 7 108 -80
46 -57 88 -82 101 -61 4 7 17 9 35 5 60 -15 104 -18 104 -7 0 6 -4 11 -10 11
-5 0 -10 8 -10 17 0 13 3 14 12 5 7 -7 21 -12 33 -12 14 0 7 8 -25 27 -25 14
-57 37 -71 50 -14 13 -32 23 -39 21 -7 -2 -15 4 -17 12 -4 13 -3 13 6 0 7 -10
11 -11 11 -2 0 7 -12 20 -27 30 -16 9 -29 24 -31 32 -2 8 -11 19 -19 24 -23
13 -55 47 -50 53 3 2 17 -3 31 -12 20 -13 29 -15 39 -6 8 6 18 7 22 3 5 -4 5
1 2 10 -4 11 0 21 10 26 10 6 14 16 10 26 -4 9 -2 16 3 16 6 0 9 3 9 8 -1 4 0
9 1 12 3 9 8 35 14 70 5 28 4 30 -3 10 l-9 -25 -1 28 c-1 25 7 32 37 28 19 -3
14 13 -8 27 -17 10 -18 16 -10 33 6 11 9 28 7 37 -4 14 -5 13 -6 -3z m-113
-362 c-2 -11 6 -22 20 -28 28 -12 28 -22 1 -30 -19 -6 -19 -8 -5 -24 17 -18
21 -41 9 -41 -19 1 -83 74 -83 95 0 11 35 4 52 -12 10 -9 21 -14 24 -10 3 3
-6 13 -20 22 -20 13 -23 19 -13 30 16 19 18 18 15 -2z m55 -99 c-7 -19 -10
-18 -16 5 -3 13 -1 18 9 14 7 -2 10 -11 7 -19z m61 -3 c3 -5 -1 -11 -9 -15 -9
-3 -15 0 -15 9 0 16 16 20 24 6z"/>
<path d="M775 2150 c-3 -5 -1 -10 4 -10 6 0 11 5 11 10 0 6 -2 10 -4 10 -3 0
-8 -4 -11 -10z"/>
<path d="M844 2145 c-10 -8 -14 -14 -9 -14 6 0 19 6 29 14 11 8 15 15 10 15
-6 0 -19 -7 -30 -15z"/>
<path d="M2425 2150 c-13 -6 -15 -9 -5 -9 8 0 22 4 30 9 18 12 2 12 -25 0z"/>
<path d="M4269 2141 c-24 -27 -31 -53 -17 -63 11 -6 11 -10 0 -17 -10 -6 -5
-11 17 -21 20 -8 31 -20 31 -32 0 -16 6 -19 38 -16 29 2 37 7 37 23 0 27 30
59 49 52 10 -4 16 -1 16 9 0 9 -9 18 -19 21 -11 3 -21 13 -24 24 -10 38 -99
52 -128 20z"/>
<path d="M4939 2133 l-24 -28 25 22 c14 11 34 23 45 26 19 5 19 5 -1 6 -11 0
-31 -11 -45 -26z"/>
<path d="M6224 2144 c4 -9 2 -13 -5 -8 -7 4 -9 0 -5 -13 7 -23 -16 -48 -38
-40 -8 3 -17 0 -19 -7 -3 -8 -20 -13 -39 -12 -25 0 -34 -4 -37 -19 -3 -17 -2
-18 14 -5 11 9 20 11 22 5 2 -8 54 -11 103 -6 2 1 -1 6 -8 13 -16 16 -15 28 3
28 8 0 15 9 15 20 0 24 8 25 38 4 12 -8 22 -10 22 -5 0 6 -4 11 -10 11 -5 0
-10 7 -10 15 0 8 -7 15 -15 15 -8 0 -15 5 -15 10 0 6 -5 10 -11 10 -6 0 -8 -7
-5 -16z"/>
<path d="M165 2139 c-4 -6 -5 -12 -2 -15 2 -3 7 2 10 11 7 17 1 20 -8 4z"/>
<path d="M3950 2141 c0 -5 7 -12 16 -15 14 -5 15 -4 4 9 -14 17 -20 19 -20 6z"/>
<path d="M6130 2140 c0 -5 -8 -10 -17 -11 -11 0 -13 -3 -5 -6 15 -6 16 -33 1
-33 -5 0 -7 -5 -3 -12 9 -15 36 21 30 39 -3 7 -1 13 4 13 6 0 10 5 10 10 0 6
-4 10 -10 10 -5 0 -10 -4 -10 -10z"/>
<path d="M878 2133 c-10 -2 -18 -8 -18 -13 0 -4 9 -6 20 -3 11 3 20 9 20 14 0
5 -1 8 -2 8 -2 -1 -11 -3 -20 -6z"/>
<path d="M6075 2130 c-3 -5 -1 -10 4 -10 6 0 11 5 11 10 0 6 -2 10 -4 10 -3 0
-8 -4 -11 -10z"/>
<path d="M341 2114 c0 -11 3 -14 6 -6 3 7 2 16 -1 19 -3 4 -6 -2 -5 -13z"/>
<path d="M2357 2117 c4 -6 0 -8 -10 -4 -9 3 -19 2 -22 -3 -3 -5 -12 -7 -19 -4
-8 3 -17 1 -20 -4 -6 -11 89 -38 114 -33 8 2 18 8 22 14 5 8 8 7 8 -3 0 -9 3
-11 8 -5 4 6 15 15 25 20 34 18 22 26 -45 29 -45 2 -66 0 -61 -7z"/>
<path d="M6307 2115 c-4 -8 -2 -17 2 -20 5 -2 11 4 14 15 6 23 -8 27 -16 5z"/>
<path d="M6049 2113 c-1 -5 -1 -11 0 -15 0 -5 -4 -8 -11 -8 -15 0 -1 -13 17
-16 7 -1 16 4 19 12 3 8 -1 14 -10 14 -8 0 -12 5 -9 10 3 6 4 10 1 10 -3 0 -7
-3 -7 -7z"/>
<path d="M6165 2110 c-3 -5 -1 -10 4 -10 6 0 11 5 11 10 0 6 -2 10 -4 10 -3 0
-8 -4 -11 -10z"/>
<path d="M2627 2093 c5 -12 3 -14 -8 -8 -10 5 -11 5 -4 -3 6 -7 23 -8 45 -3
35 7 35 7 11 20 -19 11 -22 11 -16 -1 6 -10 5 -11 -6 0 -18 17 -30 15 -22 -5z"/>
<path d="M750 2080 c0 -5 5 -10 10 -10 6 0 10 5 10 10 0 6 -4 10 -10 10 -5 0
-10 -4 -10 -10z"/>
<path d="M800 2080 c0 -5 7 -10 16 -10 8 0 12 5 9 10 -3 6 -10 10 -16 10 -5 0
-9 -4 -9 -10z"/>
<path d="M3950 2070 c5 -9 6 -21 2 -25 -4 -5 1 -5 11 -2 11 4 17 1 17 -9 0 -8
-4 -12 -10 -9 -6 4 -10 -5 -9 -22 1 -17 3 -21 6 -10 2 9 9 17 14 17 9 0 8 69
-1 71 -3 0 -13 2 -22 4 -14 3 -16 0 -8 -15z"/>
<path d="M1595 2054 c-11 -17 -13 -25 -4 -22 16 5 44 48 31 48 -5 0 -17 -12
-27 -26z"/>
<path d="M496 2055 c-3 -9 0 -18 8 -21 8 -3 12 -14 8 -26 -3 -14 -1 -19 6 -14
16 10 15 51 -2 65 -11 9 -15 8 -20 -4z"/>
<path d="M4215 2060 c3 -5 8 -10 11 -10 2 0 4 5 4 10 0 6 -5 10 -11 10 -5 0
-7 -4 -4 -10z"/>
<path d="M4793 2053 c9 -2 25 -2 35 0 9 3 1 5 -18 5 -19 0 -27 -2 -17 -5z"/>
<path d="M6275 2050 c3 -5 10 -10 16 -10 5 0 9 5 9 10 0 6 -7 10 -16 10 -8 0
-12 -4 -9 -10z"/>
<path d="M730 2041 c-22 -4 -30 -9 -23 -14 7 -4 27 -1 45 7 36 16 32 17 -22 7z"/>
<path d="M2900 2030 c0 -5 7 -10 15 -10 8 0 15 5 15 10 0 6 -7 10 -15 10 -8 0
-15 -4 -15 -10z"/>
<path d="M4496 2027 c3 -10 9 -15 12 -12 3 3 0 11 -7 18 -10 9 -11 8 -5 -6z"/>
<path d="M1910 2014 c0 -8 5 -12 10 -9 6 3 10 10 10 16 0 5 -4 9 -10 9 -5 0
-10 -7 -10 -16z"/>
<path d="M4931 2000 c-11 -27 -11 -36 0 -58 l14 -26 3 32 c2 18 2 44 0 58 -3
25 -3 25 -17 -6z"/>
<path d="M270 2001 c0 -6 4 -13 10 -16 6 -3 7 1 4 9 -7 18 -14 21 -14 7z"/>
<path d="M728 2003 c6 -2 18 -2 25 0 6 3 1 5 -13 5 -14 0 -19 -2 -12 -5z"/>
<path d="M2216 1998 c7 -12 44 -10 44 2 0 5 -11 9 -24 8 -14 -1 -22 -6 -20
-10z"/>
<path d="M3720 1996 c0 -8 -6 -17 -12 -19 -8 -3 -6 -6 5 -6 11 -1 17 6 17 19
0 11 -2 20 -5 20 -3 0 -5 -6 -5 -14z"/>
<path d="M4890 1983 c0 -22 2 -25 10 -13 13 20 13 40 0 40 -5 0 -10 -12 -10
-27z"/>
<path d="M5030 2000 c20 -13 33 -13 25 0 -3 6 -14 10 -23 10 -15 0 -15 -2 -2
-10z"/>
<path d="M4973 1957 c1 -24 6 -37 15 -37 9 0 11 7 6 23 -14 46 -22 51 -21 14z"/>
<path d="M5077 1971 c-3 -14 0 -21 9 -21 16 0 18 9 5 28 -6 10 -10 9 -14 -7z"/>
<path d="M386 1971 c-27 -6 -27 -7 -10 -22 27 -23 60 -39 67 -32 5 5 -20 65
-26 62 -1 -1 -15 -4 -31 -8z"/>
<path d="M3730 1945 c0 -8 2 -15 4 -15 2 0 6 7 10 15 3 8 1 15 -4 15 -6 0 -10
-7 -10 -15z"/>
<path d="M4852 1951 c-10 -6 -8 -10 9 -14 26 -7 34 -3 24 12 -7 13 -15 14 -33
2z"/>
<path d="M3690 1930 c-13 -8 -12 -10 3 -10 9 0 17 5 17 10 0 12 -1 12 -20 0z"/>
<path d="M3970 1929 c0 -10 37 -49 71 -74 8 -6 32 -25 54 -42 22 -17 47 -31
55 -31 8 0 23 -3 33 -7 21 -9 23 8 2 25 -8 7 -15 9 -15 5 0 -4 -7 -2 -15 5 -9
7 -14 19 -11 26 4 12 -11 21 -51 31 -63 15 -90 30 -96 52 -5 22 -27 30 -27 10z"/>
<path d="M4778 1933 c12 -2 30 -2 40 0 9 3 -1 5 -23 4 -22 0 -30 -2 -17 -4z"/>
<path d="M2170 1918 c0 -10 5 -18 10 -18 6 0 9 -5 8 -11 -2 -6 4 -14 12 -16
13 -4 13 -3 0 6 -12 9 -10 11 13 11 15 0 27 4 27 9 0 4 -10 8 -22 7 -13 -1
-28 5 -35 14 -11 13 -12 13 -13 -2z"/>
<path d="M3240 1920 c8 -5 20 -10 25 -10 6 0 3 5 -5 10 -8 5 -19 10 -25 10 -5
0 -3 -5 5 -10z"/>
<path d="M5380 1915 c7 -9 15 -13 17 -11 7 7 -7 26 -19 26 -6 0 -6 -6 2 -15z"/>
<path d="M5617 1918 c-19 -50 -19 -54 -2 -37 9 9 15 25 13 35 -5 18 -5 18 -11
2z"/>
<path d="M1551 1896 c-9 -23 -9 -32 1 -42 18 -18 46 -1 31 18 -6 7 -13 22 -15
33 -4 17 -6 16 -17 -9z"/>
<path d="M5150 1890 c0 -5 5 -10 10 -10 6 0 10 5 10 10 0 6 -4 10 -10 10 -5 0
-10 -4 -10 -10z"/>
<path d="M2877 1874 c3 -7 9 -14 14 -14 14 0 10 17 -5 23 -10 4 -13 1 -9 -9z"/>
<path d="M2910 1872 c0 -5 7 -13 16 -16 10 -4 14 -1 12 6 -5 15 -28 23 -28 10z"/>
<path d="M5442 1866 c7 -7 19 -11 26 -8 11 4 11 6 0 13 -7 5 -19 9 -26 9 -10
0 -10 -3 0 -14z"/>
<path d="M5558 1873 c7 -3 16 -2 19 1 4 3 -2 6 -13 5 -11 0 -14 -3 -6 -6z"/>
<path d="M4755 1850 c3 -5 16 -10 28 -9 21 0 21 1 2 9 -28 12 -37 12 -30 0z"/>
<path d="M5170 1856 c0 -2 7 -7 16 -10 8 -3 12 -2 9 4 -6 10 -25 14 -25 6z"/>
<path d="M3350 1839 c0 -5 5 -7 10 -4 6 3 10 8 10 11 0 2 -4 4 -10 4 -5 0 -10
-5 -10 -11z"/>
<path d="M2906 1832 c-2 -4 -6 -35 -8 -68 -3 -64 1 -71 60 -127 17 -17 32 -36
32 -42 0 -20 44 -65 57 -57 13 8 -11 44 -37 55 -8 4 0 5 18 4 18 -2 35 0 38 5
3 5 12 4 19 -2 9 -8 14 -7 18 4 3 8 -1 20 -9 26 -19 16 -18 30 3 30 14 0 14 2
-2 20 -10 11 -22 17 -28 13 -6 -3 -7 -1 -3 6 4 6 -5 24 -22 41 -16 16 -32 36
-35 44 -4 10 -13 13 -23 9 -12 -4 -15 -3 -10 6 4 6 2 18 -4 26 -13 16 -56 20
-64 7z m94 -65 c0 -10 5 -28 11 -39 8 -15 8 -23 -2 -32 -9 -8 -10 -8 -4 3 6
11 4 13 -10 7 -11 -4 -22 -2 -26 6 -4 7 -12 9 -16 4 -4 -4 8 -21 27 -37 26
-21 30 -29 18 -29 -38 0 -83 74 -56 91 9 6 8 12 -3 25 -9 11 -9 15 -1 10 6 -4
12 -4 12 1 0 4 11 8 25 8 17 0 25 -5 25 -18z"/>
<path d="M4950 1836 c0 -2 9 -6 20 -9 11 -3 20 -1 20 4 0 5 -9 9 -20 9 -11 0
-20 -2 -20 -4z"/>
<path d="M5020 1833 c0 -12 27 -36 60 -53 14 -7 21 -8 15 -4 -5 5 -25 22 -42
38 -18 17 -33 25 -33 19z"/>
<path d="M4848 1823 c7 -3 16 -2 19 1 4 3 -2 6 -13 5 -11 0 -14 -3 -6 -6z"/>
<path d="M5330 1820 c-9 -6 -8 -10 6 -19 18 -10 18 -10 0 -11 -20 0 -20 0 0
-16 10 -8 13 -13 7 -9 -7 3 -13 2 -13 -3 0 -16 52 -25 61 -10 12 17 11 28 -1
28 -5 0 -7 6 -4 13 6 17 -38 38 -56 27z"/>
<path d="M2873 1805 c0 -8 4 -12 9 -9 5 3 6 10 3 15 -9 13 -12 11 -12 -6z"/>
<path d="M3276 1798 c4 -18 2 -28 -5 -28 -6 0 -11 -5 -11 -10 0 -6 14 -9 30
-8 37 3 37 9 5 45 l-25 28 6 -27z"/>
<path d="M5695 1810 c-3 -5 -1 -10 4 -10 6 0 11 5 11 10 0 6 -2 10 -4 10 -3 0
-8 -4 -11 -10z"/>
<path d="M140 1796 c0 -8 5 -18 10 -21 6 -3 10 1 10 9 0 8 -4 18 -10 21 -5 3
-10 -1 -10 -9z"/>
<path d="M480 1806 c0 -2 8 -10 18 -17 15 -13 16 -12 3 4 -13 16 -21 21 -21
13z"/>
<path d="M1750 1786 c0 -14 21 -26 46 -26 10 0 9 5 -6 20 -23 23 -40 26 -40 6z"/>
<path d="M2700 1786 c14 -7 29 -10 34 -8 11 6 -20 20 -44 21 -8 0 -4 -5 10
-13z"/>
<path d="M5770 1765 c7 -8 17 -15 22 -15 6 0 5 7 -2 15 -7 8 -17 15 -22 15 -6
0 -5 -7 2 -15z"/>
<path d="M3545 1760 c-3 -5 -1 -10 4 -10 6 0 11 5 11 10 0 6 -2 10 -4 10 -3 0
-8 -4 -11 -10z"/>
<path d="M730 1739 c0 -14 5 -30 12 -37 15 -15 38 -16 38 -2 0 6 -8 10 -17 8
-13 -2 -18 4 -18 19 0 11 -3 25 -7 29 -5 4 -8 -4 -8 -17z"/>
<path d="M5166 1731 c-7 -11 17 -21 47 -21 19 0 19 2 -7 15 -33 18 -33 18 -40
6z"/>
<path d="M555 1700 c-20 -8 -20 -9 1 -9 11 -1 29 -8 40 -16 32 -24 45 -17 18
10 -27 27 -29 28 -59 15z"/>
<path d="M822 1639 c6 -16 12 -28 14 -26 5 5 -13 57 -20 57 -3 0 0 -14 6 -31z"/>
<path d="M3875 1660 c-3 -5 -1 -10 4 -10 6 0 11 5 11 10 0 6 -2 10 -4 10 -3 0
-8 -4 -11 -10z"/>
<path d="M124 1635 c-8 -19 2 -45 16 -45 6 0 8 5 4 12 -5 8 -2 9 10 5 10 -4
20 -7 22 -7 2 0 4 -7 4 -15 0 -8 5 -15 10 -15 20 0 9 27 -15 38 -14 6 -25 18
-25 27 0 19 -19 20 -26 0z"/>
<path d="M5688 1643 c6 -2 18 -2 25 0 6 3 1 5 -13 5 -14 0 -19 -2 -12 -5z"/>
<path d="M3130 1618 c0 -8 5 -19 12 -26 9 -9 8 -12 -4 -12 -22 0 -27 -30 -11
-56 20 -32 -10 -41 -34 -11 -10 13 -26 21 -35 19 -22 -4 -22 -6 -3 -42 18 -35
25 -39 18 -10 -4 15 -2 19 10 14 9 -3 13 -12 10 -20 -3 -7 7 -28 21 -45 14
-17 26 -27 26 -24 0 4 6 2 14 -5 8 -6 13 -17 10 -24 -7 -17 55 -116 72 -116
18 0 18 14 0 29 -29 24 -57 101 -52 144 3 22 0 50 -6 60 -9 17 -8 19 7 14 9
-4 19 -7 21 -7 2 0 4 -9 4 -19 0 -11 5 -21 12 -23 17 -6 19 -38 2 -38 -18 0
-18 -14 3 -53 9 -18 18 -34 18 -37 1 -3 7 -23 13 -45 15 -52 15 -58 -4 -51 -9
3 -12 2 -9 -5 4 -6 13 -8 21 -5 8 3 14 1 14 -4 0 -6 -6 -10 -12 -10 -9 0 -8
-3 2 -10 18 -11 35 13 26 37 -4 8 -2 21 2 27 5 6 14 33 21 59 11 48 9 60 -19
87 -39 37 -124 150 -139 187 -12 26 -31 39 -31 21z m5 -179 c11 -17 -1 -21
-15 -4 -8 9 -8 15 -2 15 6 0 14 -5 17 -11z m29 -4 c-4 -8 -8 -15 -10 -15 -2 0
-4 7 -4 15 0 8 4 15 10 15 5 0 7 -7 4 -15z"/>
<path d="M4875 1610 c3 -5 11 -10 16 -10 6 0 7 5 4 10 -3 6 -11 10 -16 10 -6
0 -7 -4 -4 -10z"/>
<path d="M2617 1603 c-6 -11 -1 -38 12 -60 9 -15 10 -11 11 25 0 37 -11 55
-23 35z"/>
<path d="M808 1588 c5 -5 16 -8 23 -6 8 3 3 7 -10 11 -17 4 -21 3 -13 -5z"/>
<path d="M5006 1591 c-6 -10 54 -35 62 -26 3 3 0 5 -6 5 -7 0 -12 7 -12 15 0
16 -35 21 -44 6z"/>
<path d="M214 1581 c3 -5 17 -11 31 -13 20 -4 23 -3 14 8 -12 15 -54 20 -45 5z"/>
<path d="M860 1586 c0 -2 8 -10 18 -17 15 -13 16 -12 3 4 -13 16 -21 21 -21
13z"/>
<path d="M2660 1582 c0 -5 7 -15 15 -22 8 -7 15 -8 15 -2 0 5 -7 15 -15 22 -8
7 -15 8 -15 2z"/>
<path d="M5550 1572 c0 -5 7 -15 15 -22 8 -7 15 -8 15 -2 0 5 -7 15 -15 22 -8
7 -15 8 -15 2z"/>
<path d="M437 1530 c4 -14 14 -20 32 -20 27 0 24 5 -21 30 -13 8 -15 6 -11
-10z"/>
<path d="M895 1540 c3 -5 13 -10 21 -10 8 0 12 5 9 10 -3 6 -13 10 -21 10 -8
0 -12 -4 -9 -10z"/>
<path d="M5148 1543 c12 -2 30 -2 40 0 9 3 -1 5 -23 4 -22 0 -30 -2 -17 -4z"/>
<path d="M5458 1543 c7 -3 16 -2 19 1 4 3 -2 6 -13 5 -11 0 -14 -3 -6 -6z"/>
<path d="M5930 1539 c0 -5 5 -7 10 -4 6 3 10 8 10 11 0 2 -4 4 -10 4 -5 0 -10
-5 -10 -11z"/>
<path d="M610 1531 c0 -4 11 -13 25 -19 14 -6 25 -8 25 -4 0 4 -11 12 -25 19
-14 6 -25 8 -25 4z"/>
<path d="M5288 1533 c12 -2 32 -2 45 0 12 2 2 4 -23 4 -25 0 -35 -2 -22 -4z"/>
<path d="M5790 1530 c-13 -8 -12 -10 3 -10 9 0 17 5 17 10 0 12 -1 12 -20 0z"/>
<path d="M3111 1514 c0 -11 3 -14 6 -6 3 7 2 16 -1 19 -3 4 -6 -2 -5 -13z"/>
<path d="M904 1498 c3 -15 -3 -18 -32 -19 -33 -2 -31 -2 13 -9 28 -4 61 -4 74
0 22 5 22 7 6 20 -10 8 -20 14 -22 13 -1 -2 -6 -3 -10 -2 -5 0 1 4 12 9 16 7
13 8 -13 7 -26 -2 -32 -6 -28 -19z"/>
<path d="M450 1480 c20 -13 33 -13 25 0 -3 6 -14 10 -23 10 -15 0 -15 -2 -2
-10z"/>
<path d="M691 1464 c0 -11 3 -14 6 -6 3 7 2 16 -1 19 -3 4 -6 -2 -5 -13z"/>
<path d="M3582 1431 c2 -10 -3 -15 -13 -13 -22 3 -59 -40 -63 -74 -4 -34 20
-81 53 -103 21 -13 23 -13 19 -1 -3 8 -1 24 5 35 13 25 21 66 9 47 -9 -13 -72
-6 -72 8 0 12 30 21 42 13 7 -4 9 2 5 16 -4 18 -3 20 9 10 8 -6 14 -8 14 -3 0
4 5 3 12 -4 7 -7 25 -12 40 -12 23 0 27 4 24 23 -3 23 -34 36 -45 19 -4 -7
-12 -8 -21 -2 -13 8 -12 10 3 10 19 0 23 15 7 25 -6 4 -8 10 -6 14 3 4 -1 8
-9 8 -9 0 -14 -7 -13 -16z m-18 -127 c9 -3 16 -10 16 -15 0 -4 -7 -6 -15 -3
-11 5 -14 2 -9 -12 6 -18 6 -18 -11 -2 -9 9 -14 21 -11 27 8 13 9 13 30 5z"/>
<path d="M3680 1390 c0 -5 7 -10 15 -10 8 0 15 5 15 10 0 6 -7 10 -15 10 -8 0
-15 -4 -15 -10z"/>
<path d="M3704 1347 c2 -16 -1 -44 -7 -62 -10 -33 -10 -33 -36 -18 l-26 16 22
-23 c18 -19 25 -21 36 -11 19 15 27 68 16 101 -9 25 -9 24 -5 -3z"/>
<path d="M700 1310 c0 -5 7 -7 15 -4 8 4 15 8 15 10 0 2 -7 4 -15 4 -8 0 -15
-4 -15 -10z"/>
<path d="M639 1271 c9 -6 10 -11 2 -15 -6 -4 -15 -5 -20 -2 -4 3 -6 -5 -4 -18
4 -19 11 -23 29 -21 33 3 38 9 30 40 -4 17 -13 25 -29 25 -16 0 -18 -3 -8 -9z"/>
<path d="M730 1259 c0 -5 5 -7 10 -4 6 3 10 8 10 11 0 2 -4 4 -10 4 -5 0 -10
-5 -10 -11z"/>
<path d="M3611 1252 c0 -7 -5 -10 -11 -7 -5 3 -10 1 -10 -4 0 -6 3 -11 8 -11
4 0 17 -3 30 -6 14 -4 22 -2 22 6 0 7 -6 10 -14 7 -9 -4 -17 1 -19 11 -3 9 -5
11 -6 4z"/>
<path d="M696 1201 c-4 -7 -5 -15 -2 -18 9 -9 19 4 14 18 -4 11 -6 11 -12 0z"/>
<path d="M630 1188 c0 -4 7 -8 15 -8 8 0 15 4 15 8 0 5 -7 9 -15 9 -8 0 -15
-4 -15 -9z"/>
<path d="M717 1173 c-13 -12 -7 -23 11 -22 10 0 12 3 4 6 -6 2 -10 9 -6 14 6
10 0 12 -9 2z"/>
<path d="M705 1130 c4 -6 11 -8 16 -5 14 9 11 15 -7 15 -8 0 -12 -5 -9 -10z"/>
<path d="M698 1103 c-10 -2 -18 -11 -18 -19 0 -8 -4 -13 -9 -10 -5 3 -14 0
-20 -8 -9 -11 -8 -18 5 -30 9 -9 14 -25 11 -36 -3 -11 -1 -18 3 -15 5 3 10 -1
12 -7 3 -7 7 -1 10 14 3 15 2 25 -2 23 -5 -3 -11 3 -15 12 -3 10 -1 19 4 21 6
2 11 10 11 17 0 8 10 21 22 29 22 16 19 18 -14 9z"/>
<path d="M775 1081 c-3 -6 -14 -8 -25 -6 -12 2 -18 0 -15 -6 9 -14 34 -11 51
6 9 8 11 15 5 15 -5 0 -12 -4 -16 -9z"/>
<path d="M704 1054 c3 -8 6 -18 6 -20 0 -3 5 -2 10 1 15 9 12 22 -6 29 -12 5
-15 2 -10 -10z"/>
<path d="M905 1060 c3 -5 8 -10 11 -10 2 0 4 5 4 10 0 6 -5 10 -11 10 -5 0 -7
-4 -4 -10z"/>
<path d="M690 930 c-7 -14 -7 -20 0 -20 5 0 10 6 10 14 0 8 6 17 13 19 9 4 9
6 0 6 -7 1 -17 -8 -23 -19z"/>
<path d="M640 884 c-16 -8 -19 -14 -9 -14 8 0 24 7 35 15 24 18 7 18 -26 -1z"/>
<path d="M651 844 c0 -11 3 -14 6 -6 3 7 2 16 -1 19 -3 4 -6 -2 -5 -13z"/>
<path d="M671 764 c0 -11 3 -14 6 -6 3 7 2 16 -1 19 -3 4 -6 -2 -5 -13z"/>
<path d="M670 721 c0 -6 4 -13 10 -16 6 -3 7 1 4 9 -7 18 -14 21 -14 7z"/>
</g>
</svg>
