<?xml version="1.0" standalone="no"?>
<!DOCTYPE svg PUBLIC "-//W3C//DTD SVG 20010904//EN"
 "http://www.w3.org/TR/2001/REC-SVG-20010904/DTD/svg10.dtd">
<svg version="1.0" xmlns="http://www.w3.org/2000/svg"
 width="35.000000pt" height="23.000000pt" viewBox="0 0 35.000000 23.000000"
 preserveAspectRatio="xMidYMid meet">

<g transform="translate(0.000000,23.000000) scale(0.100000,-0.100000)"
fill="#000000" stroke="none">
<path d="M59 196 c-8 -9 3 -86 12 -86 5 0 9 9 9 20 0 17 3 19 19 10 15 -7 22
-7 28 2 5 8 10 -13 13 -51 6 -74 30 -100 30 -32 0 39 2 41 30 41 24 0 33 -7
50 -40 11 -22 27 -40 35 -40 20 0 19 5 -7 52 l-23 40 23 38 c26 46 27 50 7 50
-8 0 -24 -18 -35 -40 -17 -33 -26 -40 -50 -40 -28 0 -30 2 -30 40 l0 40 -53 0
c-30 0 -56 -2 -58 -4z"/>
<path d="M59 85 c-5 -27 -1 -59 9 -63 8 -2 12 9 12 32 0 20 -4 36 -10 36 -5 0
-10 -2 -11 -5z"/>
</g>
</svg>
